<svg xmlns="http://www.w3.org/2000/svg" viewBox="0 0 400 250" width="400" height="250" role="img"><defs><marker id="ah" markerWidth="9" markerHeight="9" refX="6.5" refY="3" orient="auto" markerUnits="userSpaceOnUse"><path d="M0,0 L7,3 L0,6 Z" fill="#0f172a"/></marker><marker id="ahw" markerWidth="9" markerHeight="9" refX="6.5" refY="3" orient="auto" markerUnits="userSpaceOnUse"><path d="M0,0 L7,3 L0,6 Z" fill="#ffffff"/></marker><clipPath id="pc"><rect x="0" y="0" width="400" height="214" rx="14"/></clipPath></defs><g clip-path="url(#pc)"><rect x="0" y="0" width="400" height="214" fill="#1f7a44"/><rect x="0" y="0" width="34" height="214" fill="#249150" opacity="0.55"/><rect x="68" y="0" width="34" height="214" fill="#249150" opacity="0.55"/><rect x="136" y="0" width="34" height="214" fill="#249150" opacity="0.55"/><rect x="204" y="0" width="34" height="214" fill="#249150" opacity="0.55"/><rect x="272" y="0" width="34" height="214" fill="#249150" opacity="0.55"/><rect x="340" y="0" width="34" height="214" fill="#249150" opacity="0.55"/></g><rect x="8" y="8" width="384" height="198" rx="9" fill="none" stroke="#ffffff" stroke-opacity="0.55" stroke-width="2"/><circle cx="80" cy="160" r="9" fill="#2563eb" stroke="#fff" stroke-width="1.6"/><g><ellipse cx="80" cy="174" rx="6" ry="4.2" fill="#f5f1e6" stroke="#5b3a1a" stroke-width="1.2"/><line x1="76" y1="174" x2="84" y2="174" stroke="#5b3a1a" stroke-width="1"/></g><path d="M92,172 q40,8 80,2 q30,-4 60,4" fill="none" stroke="#0f172a" stroke-width="3" stroke-dasharray="2 6" marker-end="url(#ah)"/><text x="160" y="196" font-size="8.5" fill="#fff" text-anchor="middle" font-weight="600" font-family="system-ui,sans-serif" paint-order="stroke" stroke="#0f172a" stroke-width="2.4" stroke-opacity="0.35" stroke-linejoin="round">grubber</text><path d="M92,162 Q141,107 190,120" fill="none" stroke="#0f172a" stroke-width="3" stroke-dasharray="2 6" marker-end="url(#ah)"/><text x="165" y="96" font-size="8.5" fill="#fff" text-anchor="middle" font-weight="600" font-family="system-ui,sans-serif" paint-order="stroke" stroke="#0f172a" stroke-width="2.4" stroke-opacity="0.35" stroke-linejoin="round">chip</text><path d="M92,156 Q201,49 310,70" fill="none" stroke="#0f172a" stroke-width="3" stroke-dasharray="2 6" marker-end="url(#ah)"/><text x="300" y="52" font-size="8.5" fill="#fff" text-anchor="middle" font-weight="600" font-family="system-ui,sans-serif" paint-order="stroke" stroke="#0f172a" stroke-width="2.4" stroke-opacity="0.35" stroke-linejoin="round">punt / spiral</text><circle cx="225" cy="130" r="9" fill="#dc2626" stroke="#fff" stroke-width="1.6"/><text x="200" y="30" font-size="10" fill="#fff" text-anchor="middle" font-weight="600" font-family="system-ui,sans-serif" paint-order="stroke" stroke="#0f172a" stroke-width="2.4" stroke-opacity="0.35" stroke-linejoin="round">Scegliere il calcio giusto per lo spazio giusto</text><rect x="0" y="214" width="400" height="36" fill="#0f172a"/><circle cx="12" cy="229" r="6" fill="#2563eb" stroke="#fff" stroke-width="1"/><text x="26" y="233" font-size="10" fill="#fff" font-family="system-ui,sans-serif">Attacco</text><circle cx="76.6" cy="229" r="6" fill="#dc2626" stroke="#fff" stroke-width="1"/><text x="90.6" y="233" font-size="10" fill="#fff" font-family="system-ui,sans-serif">Difesa</text><line x1="129.4" y1="229" x2="144.4" y2="229" stroke="#fff" stroke-width="2.6" marker-end="url(#ahw)"/><text x="150.4" y="233" font-size="10" fill="#fff" font-family="system-ui,sans-serif">Corsa</text><line x1="183.4" y1="229" x2="198.4" y2="229" stroke="#fff" stroke-width="2.6" stroke-dasharray="5 4" marker-end="url(#ahw)"/><text x="204.4" y="233" font-size="10" fill="#fff" font-family="system-ui,sans-serif">Passaggio</text><path d="M266.6,223 L271.6,233 L261.6,233 Z" fill="#f59e0b"/><text x="277.6" y="233" font-size="10" fill="#fff" font-family="system-ui,sans-serif">Cono</text><line x1="304.8" y1="229" x2="319.8" y2="229" stroke="#fff" stroke-width="2.6" stroke-dasharray="2 5" marker-end="url(#ahw)"/><text x="325.8" y="233" font-size="10" fill="#fff" font-family="system-ui,sans-serif">Calcio</text></svg>