<svg xmlns="http://www.w3.org/2000/svg" viewBox="0 0 400 250" width="400" height="250" role="img"><defs><marker id="ah" markerWidth="9" markerHeight="9" refX="6.5" refY="3" orient="auto" markerUnits="userSpaceOnUse"><path d="M0,0 L7,3 L0,6 Z" fill="#0f172a"/></marker><marker id="ahw" markerWidth="9" markerHeight="9" refX="6.5" refY="3" orient="auto" markerUnits="userSpaceOnUse"><path d="M0,0 L7,3 L0,6 Z" fill="#ffffff"/></marker><clipPath id="pc"><rect x="0" y="0" width="400" height="214" rx="14"/></clipPath></defs><g clip-path="url(#pc)"><rect x="0" y="0" width="400" height="214" fill="#1f7a44"/><rect x="0" y="0" width="34" height="214" fill="#249150" opacity="0.55"/><rect x="68" y="0" width="34" height="214" fill="#249150" opacity="0.55"/><rect x="136" y="0" width="34" height="214" fill="#249150" opacity="0.55"/><rect x="204" y="0" width="34" height="214" fill="#249150" opacity="0.55"/><rect x="272" y="0" width="34" height="214" fill="#249150" opacity="0.55"/><rect x="340" y="0" width="34" height="214" fill="#249150" opacity="0.55"/></g><rect x="8" y="8" width="384" height="198" rx="9" fill="none" stroke="#ffffff" stroke-opacity="0.55" stroke-width="2"/><path d="M70,53 L76,67 L64,67 Z" fill="#f59e0b" stroke="#b45309" stroke-width="1"/><path d="M70,159 L76,173 L64,173 Z" fill="#f59e0b" stroke="#b45309" stroke-width="1"/><path d="M138,53 L144,67 L132,67 Z" fill="#f59e0b" stroke="#b45309" stroke-width="1"/><path d="M138,159 L144,173 L132,173 Z" fill="#f59e0b" stroke="#b45309" stroke-width="1"/><path d="M206,53 L212,67 L200,67 Z" fill="#f59e0b" stroke="#b45309" stroke-width="1"/><path d="M206,159 L212,173 L200,173 Z" fill="#f59e0b" stroke="#b45309" stroke-width="1"/><path d="M274,53 L280,67 L268,67 Z" fill="#f59e0b" stroke="#b45309" stroke-width="1"/><path d="M274,159 L280,173 L268,173 Z" fill="#f59e0b" stroke="#b45309" stroke-width="1"/><circle cx="85" cy="150" r="9" fill="#2563eb" stroke="#fff" stroke-width="1.6"/><circle cx="155" cy="128" r="9" fill="#2563eb" stroke="#fff" stroke-width="1.6"/><circle cx="225" cy="106" r="9" fill="#2563eb" stroke="#fff" stroke-width="1.6"/><circle cx="295" cy="84" r="9" fill="#2563eb" stroke="#fff" stroke-width="1.6"/><g><ellipse cx="98" cy="150" rx="6" ry="4.2" fill="#f5f1e6" stroke="#5b3a1a" stroke-width="1.2"/><line x1="94" y1="150" x2="102" y2="150" stroke="#5b3a1a" stroke-width="1"/></g><line x1="97" y1="146" x2="143" y2="132" stroke="#0f172a" stroke-width="3" stroke-dasharray="7 5" marker-end="url(#ah)" stroke-linecap="round"/><line x1="167" y1="124" x2="213" y2="110" stroke="#0f172a" stroke-width="3" stroke-dasharray="7 5" marker-end="url(#ah)" stroke-linecap="round"/><line x1="237" y1="102" x2="283" y2="88" stroke="#0f172a" stroke-width="3" stroke-dasharray="7 5" marker-end="url(#ah)" stroke-linecap="round"/><line x1="85" y1="138" x2="85" y2="112" stroke="#0f172a" stroke-width="3"  marker-end="url(#ah)" stroke-linecap="round"/><text x="200" y="32" font-size="11" fill="#fff" text-anchor="middle" font-weight="600" font-family="system-ui,sans-serif" paint-order="stroke" stroke="#0f172a" stroke-width="2.4" stroke-opacity="0.35" stroke-linejoin="round">Linea di passaggio in avanzamento</text><rect x="0" y="214" width="400" height="36" fill="#0f172a"/><circle cx="12" cy="229" r="6" fill="#2563eb" stroke="#fff" stroke-width="1"/><text x="26" y="233" font-size="10" fill="#fff" font-family="system-ui,sans-serif">Attacco</text><circle cx="76.6" cy="229" r="6" fill="#dc2626" stroke="#fff" stroke-width="1"/><text x="90.6" y="233" font-size="10" fill="#fff" font-family="system-ui,sans-serif">Difesa</text><line x1="129.4" y1="229" x2="144.4" y2="229" stroke="#fff" stroke-width="2.6" marker-end="url(#ahw)"/><text x="150.4" y="233" font-size="10" fill="#fff" font-family="system-ui,sans-serif">Corsa</text><line x1="183.4" y1="229" x2="198.4" y2="229" stroke="#fff" stroke-width="2.6" stroke-dasharray="5 4" marker-end="url(#ahw)"/><text x="204.4" y="233" font-size="10" fill="#fff" font-family="system-ui,sans-serif">Passaggio</text><path d="M266.6,223 L271.6,233 L261.6,233 Z" fill="#f59e0b"/><text x="277.6" y="233" font-size="10" fill="#fff" font-family="system-ui,sans-serif">Cono</text></svg>