<svg xmlns="http://www.w3.org/2000/svg" viewBox="0 0 400 250" width="400" height="250" role="img"><defs><marker id="ap" markerWidth="9" markerHeight="9" refX="6.5" refY="3" orient="auto" markerUnits="userSpaceOnUse"><path d="M0,0 L7,3 L0,6 Z" fill="#16a34a"/></marker><marker id="ar" markerWidth="9" markerHeight="9" refX="6.5" refY="3" orient="auto" markerUnits="userSpaceOnUse"><path d="M0,0 L7,3 L0,6 Z" fill="#e11d48"/></marker><marker id="ak" markerWidth="9" markerHeight="9" refX="6.5" refY="3" orient="auto" markerUnits="userSpaceOnUse"><path d="M0,0 L7,3 L0,6 Z" fill="#f59e0b"/></marker><marker id="an" markerWidth="9" markerHeight="9" refX="6.5" refY="3" orient="auto" markerUnits="userSpaceOnUse"><path d="M0,0 L7,3 L0,6 Z" fill="#0f172a"/></marker><marker id="aw" markerWidth="9" markerHeight="9" refX="6.5" refY="3" orient="auto" markerUnits="userSpaceOnUse"><path d="M0,0 L7,3 L0,6 Z" fill="#ffffff"/></marker><clipPath id="pc"><rect x="0" y="0" width="400" height="214" rx="14"/></clipPath></defs><g clip-path="url(#pc)"><rect x="0" y="0" width="400" height="214" fill="#1f7a44"/><rect x="0" y="0" width="34" height="214" fill="#249150" opacity="0.55"/><rect x="68" y="0" width="34" height="214" fill="#249150" opacity="0.55"/><rect x="136" y="0" width="34" height="214" fill="#249150" opacity="0.55"/><rect x="204" y="0" width="34" height="214" fill="#249150" opacity="0.55"/><rect x="272" y="0" width="34" height="214" fill="#249150" opacity="0.55"/><rect x="340" y="0" width="34" height="214" fill="#249150" opacity="0.55"/></g><rect x="8" y="8" width="384" height="198" rx="9" fill="none" stroke="#ffffff" stroke-opacity="0.55" stroke-width="2"/><ellipse cx="70" cy="130" rx="17" ry="9" fill="#64748b" stroke="#fff" stroke-width="1.4" opacity="0.9"/><text x="70" y="116" font-size="9" fill="#fff" text-anchor="middle" font-weight="700" font-family="system-ui,sans-serif" paint-order="stroke" stroke="#0f172a" stroke-width="2.2" stroke-opacity="0.4" stroke-linejoin="round">RUCK</text><circle cx="92" cy="144" r="8.6" fill="#2563eb" stroke="#fff" stroke-width="1.5"/><text x="92" y="147" font-size="8.6" font-weight="700" fill="#fff" text-anchor="middle" font-family="system-ui,sans-serif">9</text><line x1="102" y1="138" x2="128" y2="146" stroke="#16a34a" stroke-width="2.8" marker-end="url(#ap)" stroke-linecap="round"/><circle cx="142" cy="150" r="8.6" fill="#2563eb" stroke="#fff" stroke-width="1.5"/><text x="142" y="153" font-size="8.6" font-weight="700" fill="#fff" text-anchor="middle" font-family="system-ui,sans-serif">10</text><circle cx="150" cy="70" r="8.6" fill="#0f172a" stroke="#fff" stroke-width="1.5"/><text x="150" y="73" font-size="8.6" font-weight="700" fill="#fff" text-anchor="middle" font-family="system-ui,sans-serif">D</text><circle cx="200" cy="70" r="8.6" fill="#0f172a" stroke="#fff" stroke-width="1.5"/><text x="200" y="73" font-size="8.6" font-weight="700" fill="#fff" text-anchor="middle" font-family="system-ui,sans-serif">D</text><circle cx="250" cy="70" r="8.6" fill="#0f172a" stroke="#fff" stroke-width="1.5"/><text x="250" y="73" font-size="8.6" font-weight="700" fill="#fff" text-anchor="middle" font-family="system-ui,sans-serif">D</text><circle cx="300" cy="70" r="8.6" fill="#0f172a" stroke="#fff" stroke-width="1.5"/><text x="300" y="73" font-size="8.6" font-weight="700" fill="#fff" text-anchor="middle" font-family="system-ui,sans-serif">D</text><circle cx="345" cy="70" r="8.6" fill="#0f172a" stroke="#fff" stroke-width="1.5"/><text x="345" y="73" font-size="8.6" font-weight="700" fill="#fff" text-anchor="middle" font-family="system-ui,sans-serif">D</text><path d="M150,142 Q250,53 350,96" fill="none" stroke="#f59e0b" stroke-width="3.2" marker-end="url(#ak)" stroke-linecap="round"/><circle cx="358" cy="158" r="8.6" fill="#2563eb" stroke="#fff" stroke-width="1.5"/><text x="358" y="161" font-size="8.6" font-weight="700" fill="#fff" text-anchor="middle" font-family="system-ui,sans-serif">14</text><line x1="358" y1="147" x2="356" y2="112" stroke="#e11d48" stroke-width="2.8" marker-end="url(#ar)" stroke-linecap="round"/><circle cx="186" cy="162" r="8.6" fill="#2563eb" stroke="#fff" stroke-width="1.5"/><text x="186" y="165" font-size="8.6" font-weight="700" fill="#fff" text-anchor="middle" font-family="system-ui,sans-serif">12</text><circle cx="232" cy="170" r="8.6" fill="#2563eb" stroke="#fff" stroke-width="1.5"/><text x="232" y="173" font-size="8.6" font-weight="700" fill="#fff" text-anchor="middle" font-family="system-ui,sans-serif">13</text><circle cx="280" cy="178" r="8.6" fill="#2563eb" stroke="#fff" stroke-width="1.5"/><text x="280" y="181" font-size="8.6" font-weight="700" fill="#fff" text-anchor="middle" font-family="system-ui,sans-serif">15</text><text x="200" y="32" font-size="9.5" fill="#fff" text-anchor="middle" font-weight="700" font-family="system-ui,sans-serif" paint-order="stroke" stroke="#0f172a" stroke-width="2.2" stroke-opacity="0.4" stroke-linejoin="round">Australia — calcio-passaggio del 10 sull'ala opposta</text><rect x="0" y="214" width="400" height="36" fill="#0f172a"/><circle cx="12" cy="229" r="5.5" fill="#2563eb" stroke="#fff" stroke-width="1"/><text x="24" y="233" font-size="9.5" fill="#fff" font-family="system-ui,sans-serif">3/4</text><circle cx="48.2" cy="229" r="5.5" fill="#7c3aed" stroke="#fff" stroke-width="1"/><text x="60.2" y="233" font-size="9.5" fill="#fff" font-family="system-ui,sans-serif">Mischia</text><line x1="101" y1="229" x2="114" y2="229" stroke="#16a34a" stroke-width="2.6" marker-end="url(#aw)"/><text x="120" y="233" font-size="9.5" fill="#fff" font-family="system-ui,sans-serif">Passaggio</text><line x1="171.6" y1="229" x2="184.6" y2="229" stroke="#e11d48" stroke-width="2.6" marker-end="url(#aw)"/><text x="190.6" y="233" font-size="9.5" fill="#fff" font-family="system-ui,sans-serif">Corsa</text><line x1="220.6" y1="229" x2="233.6" y2="229" stroke="#f59e0b" stroke-width="2.6" marker-end="url(#aw)"/><text x="239.6" y="233" font-size="9.5" fill="#fff" font-family="system-ui,sans-serif">Calcio</text><circle cx="280" cy="229" r="5.5" fill="#475569" stroke="#fff" stroke-width="1"/><text x="292" y="233" font-size="9.5" fill="#fff" font-family="system-ui,sans-serif">Difesa</text></svg>