<svg xmlns="http://www.w3.org/2000/svg" viewBox="0 0 400 250" width="400" height="250" role="img"><defs><marker id="ap" markerWidth="9" markerHeight="9" refX="6.5" refY="3" orient="auto" markerUnits="userSpaceOnUse"><path d="M0,0 L7,3 L0,6 Z" fill="#16a34a"/></marker><marker id="ar" markerWidth="9" markerHeight="9" refX="6.5" refY="3" orient="auto" markerUnits="userSpaceOnUse"><path d="M0,0 L7,3 L0,6 Z" fill="#e11d48"/></marker><marker id="ak" markerWidth="9" markerHeight="9" refX="6.5" refY="3" orient="auto" markerUnits="userSpaceOnUse"><path d="M0,0 L7,3 L0,6 Z" fill="#f59e0b"/></marker><marker id="an" markerWidth="9" markerHeight="9" refX="6.5" refY="3" orient="auto" markerUnits="userSpaceOnUse"><path d="M0,0 L7,3 L0,6 Z" fill="#0f172a"/></marker><marker id="aw" markerWidth="9" markerHeight="9" refX="6.5" refY="3" orient="auto" markerUnits="userSpaceOnUse"><path d="M0,0 L7,3 L0,6 Z" fill="#ffffff"/></marker><clipPath id="pc"><rect x="0" y="0" width="400" height="214" rx="14"/></clipPath></defs><g clip-path="url(#pc)"><rect x="0" y="0" width="400" height="214" fill="#1f7a44"/><rect x="0" y="0" width="34" height="214" fill="#249150" opacity="0.55"/><rect x="68" y="0" width="34" height="214" fill="#249150" opacity="0.55"/><rect x="136" y="0" width="34" height="214" fill="#249150" opacity="0.55"/><rect x="204" y="0" width="34" height="214" fill="#249150" opacity="0.55"/><rect x="272" y="0" width="34" height="214" fill="#249150" opacity="0.55"/><rect x="340" y="0" width="34" height="214" fill="#249150" opacity="0.55"/></g><rect x="8" y="8" width="384" height="198" rx="9" fill="none" stroke="#ffffff" stroke-opacity="0.55" stroke-width="2"/><line x1="36" y1="16" x2="36" y2="198" stroke="#ffffff" stroke-width="2.6" stroke-dasharray="7 6" stroke-opacity="0.9"/><text x="38" y="28" font-size="8.5" fill="#fff" text-anchor="start" font-weight="700" font-family="system-ui,sans-serif" paint-order="stroke" stroke="#0f172a" stroke-width="2.2" stroke-opacity="0.4" stroke-linejoin="round">TOUCHE</text><circle cx="58" cy="128" r="8.6" fill="#2563eb" stroke="#fff" stroke-width="1.5"/><text x="58" y="131" font-size="8.6" font-weight="700" fill="#fff" text-anchor="middle" font-family="system-ui,sans-serif">9</text><line x1="68" y1="124" x2="96" y2="132" stroke="#16a34a" stroke-width="2.8" marker-end="url(#ap)" stroke-linecap="round"/><circle cx="112" cy="136" r="8.6" fill="#2563eb" stroke="#fff" stroke-width="1.5"/><text x="112" y="139" font-size="8.6" font-weight="700" fill="#fff" text-anchor="middle" font-family="system-ui,sans-serif">10</text><circle cx="122" cy="126" r="4" fill="#fff" stroke="#0f172a" stroke-width="1.6"/><circle cx="122" cy="126" r="1.3" fill="#0f172a"/><line x1="122" y1="130" x2="152" y2="122" stroke="#16a34a" stroke-width="2.8" marker-end="url(#ap)" stroke-linecap="round"/><circle cx="168" cy="118" r="8.6" fill="#2563eb" stroke="#fff" stroke-width="1.5"/><text x="168" y="121" font-size="8.6" font-weight="700" fill="#fff" text-anchor="middle" font-family="system-ui,sans-serif">12</text><circle cx="178" cy="108" r="4" fill="#fff" stroke="#0f172a" stroke-width="1.6"/><circle cx="178" cy="108" r="1.3" fill="#0f172a"/><circle cx="108" cy="178" r="8.6" fill="#2563eb" stroke="#fff" stroke-width="1.5"/><text x="108" y="181" font-size="8.6" font-weight="700" fill="#fff" text-anchor="middle" font-family="system-ui,sans-serif">11</text><line x1="114" y1="170" x2="146" y2="104" stroke="#e11d48" stroke-width="2.8" marker-end="url(#ar)" stroke-linecap="round"/><circle cx="232" cy="122" r="8.6" fill="#2563eb" stroke="#fff" stroke-width="1.5"/><text x="232" y="125" font-size="8.6" font-weight="700" fill="#fff" text-anchor="middle" font-family="system-ui,sans-serif">13</text><line x1="232" y1="111" x2="232" y2="86" stroke="#e11d48" stroke-width="2.8" marker-end="url(#ar)" stroke-linecap="round"/><circle cx="216" cy="168" r="8.6" fill="#2563eb" stroke="#fff" stroke-width="1.5"/><text x="216" y="171" font-size="8.6" font-weight="700" fill="#fff" text-anchor="middle" font-family="system-ui,sans-serif">15</text><line x1="224" y1="160" x2="252" y2="132" stroke="#e11d48" stroke-width="2.8" marker-end="url(#ar)" stroke-linecap="round"/><circle cx="348" cy="130" r="8.6" fill="#2563eb" stroke="#fff" stroke-width="1.5"/><text x="348" y="133" font-size="8.6" font-weight="700" fill="#fff" text-anchor="middle" font-family="system-ui,sans-serif">14</text><line x1="348" y1="119" x2="348" y2="94" stroke="#e11d48" stroke-width="2.8" marker-end="url(#ar)" stroke-linecap="round"/><circle cx="120" cy="60" r="8.6" fill="#0f172a" stroke="#fff" stroke-width="1.5"/><text x="120" y="63" font-size="8.6" font-weight="700" fill="#fff" text-anchor="middle" font-family="system-ui,sans-serif">10</text><circle cx="175" cy="60" r="8.6" fill="#0f172a" stroke="#fff" stroke-width="1.5"/><text x="175" y="63" font-size="8.6" font-weight="700" fill="#fff" text-anchor="middle" font-family="system-ui,sans-serif">12</text><circle cx="235" cy="60" r="8.6" fill="#0f172a" stroke="#fff" stroke-width="1.5"/><text x="235" y="63" font-size="8.6" font-weight="700" fill="#fff" text-anchor="middle" font-family="system-ui,sans-serif">13</text><circle cx="300" cy="60" r="8.6" fill="#0f172a" stroke="#fff" stroke-width="1.5"/><text x="300" y="63" font-size="8.6" font-weight="700" fill="#fff" text-anchor="middle" font-family="system-ui,sans-serif">14</text><line x1="120" y1="71" x2="120" y2="90" stroke="#0f172a" stroke-width="2.2" marker-end="url(#an)" stroke-linecap="round"/><line x1="175" y1="71" x2="157" y2="86" stroke="#0f172a" stroke-width="2.2" marker-end="url(#an)" stroke-linecap="round"/><line x1="235" y1="71" x2="217" y2="86" stroke="#0f172a" stroke-width="2.2" marker-end="url(#an)" stroke-linecap="round"/><line x1="300" y1="71" x2="300" y2="90" stroke="#0f172a" stroke-width="2.2" marker-end="url(#an)" stroke-linecap="round"/><text x="210" y="32" font-size="8.6" fill="#fff" text-anchor="middle" font-weight="700" font-family="system-ui,sans-serif" paint-order="stroke" stroke="#0f172a" stroke-width="2.2" stroke-opacity="0.4" stroke-linejoin="round">Bar Open Élite — catena di opzioni 10-12: 11 dentro, 13 alto, 15 dietro</text><rect x="0" y="214" width="400" height="36" fill="#0f172a"/><circle cx="12" cy="229" r="5.5" fill="#2563eb" stroke="#fff" stroke-width="1"/><text x="24" y="233" font-size="9.5" fill="#fff" font-family="system-ui,sans-serif">3/4</text><circle cx="48.2" cy="229" r="5.5" fill="#7c3aed" stroke="#fff" stroke-width="1"/><text x="60.2" y="233" font-size="9.5" fill="#fff" font-family="system-ui,sans-serif">Mischia</text><line x1="101" y1="229" x2="114" y2="229" stroke="#16a34a" stroke-width="2.6" marker-end="url(#aw)"/><text x="120" y="233" font-size="9.5" fill="#fff" font-family="system-ui,sans-serif">Passaggio</text><line x1="171.6" y1="229" x2="184.6" y2="229" stroke="#e11d48" stroke-width="2.6" marker-end="url(#aw)"/><text x="190.6" y="233" font-size="9.5" fill="#fff" font-family="system-ui,sans-serif">Corsa</text><line x1="220.6" y1="229" x2="233.6" y2="229" stroke="#f59e0b" stroke-width="2.6" marker-end="url(#aw)"/><text x="239.6" y="233" font-size="9.5" fill="#fff" font-family="system-ui,sans-serif">Calcio</text><circle cx="280" cy="229" r="5.5" fill="#475569" stroke="#fff" stroke-width="1"/><text x="292" y="233" font-size="9.5" fill="#fff" font-family="system-ui,sans-serif">Difesa</text></svg>