<svg xmlns="http://www.w3.org/2000/svg" viewBox="0 0 400 250" width="400" height="250" role="img"><defs><marker id="ap" markerWidth="9" markerHeight="9" refX="6.5" refY="3" orient="auto" markerUnits="userSpaceOnUse"><path d="M0,0 L7,3 L0,6 Z" fill="#16a34a"/></marker><marker id="ar" markerWidth="9" markerHeight="9" refX="6.5" refY="3" orient="auto" markerUnits="userSpaceOnUse"><path d="M0,0 L7,3 L0,6 Z" fill="#e11d48"/></marker><marker id="ak" markerWidth="9" markerHeight="9" refX="6.5" refY="3" orient="auto" markerUnits="userSpaceOnUse"><path d="M0,0 L7,3 L0,6 Z" fill="#f59e0b"/></marker><marker id="an" markerWidth="9" markerHeight="9" refX="6.5" refY="3" orient="auto" markerUnits="userSpaceOnUse"><path d="M0,0 L7,3 L0,6 Z" fill="#0f172a"/></marker><marker id="aw" markerWidth="9" markerHeight="9" refX="6.5" refY="3" orient="auto" markerUnits="userSpaceOnUse"><path d="M0,0 L7,3 L0,6 Z" fill="#ffffff"/></marker><clipPath id="pc"><rect x="0" y="0" width="400" height="214" rx="14"/></clipPath></defs><g clip-path="url(#pc)"><rect x="0" y="0" width="400" height="214" fill="#1f7a44"/><rect x="0" y="0" width="34" height="214" fill="#249150" opacity="0.55"/><rect x="68" y="0" width="34" height="214" fill="#249150" opacity="0.55"/><rect x="136" y="0" width="34" height="214" fill="#249150" opacity="0.55"/><rect x="204" y="0" width="34" height="214" fill="#249150" opacity="0.55"/><rect x="272" y="0" width="34" height="214" fill="#249150" opacity="0.55"/><rect x="340" y="0" width="34" height="214" fill="#249150" opacity="0.55"/></g><rect x="8" y="8" width="384" height="198" rx="9" fill="none" stroke="#ffffff" stroke-opacity="0.55" stroke-width="2"/><line x1="14" y1="38" x2="386" y2="38" stroke="#fff" stroke-width="3"/><text x="36" y="30" font-size="9" fill="#fff" text-anchor="middle" font-weight="700" font-family="system-ui,sans-serif" paint-order="stroke" stroke="#0f172a" stroke-width="2.2" stroke-opacity="0.4" stroke-linejoin="round">META</text><line x1="190" y1="30" x2="190" y2="46" stroke="#fff" stroke-width="3"/><line x1="215" y1="30" x2="215" y2="46" stroke="#fff" stroke-width="3"/><text x="202" y="24" font-size="8" fill="#fff" text-anchor="middle" font-weight="700" font-family="system-ui,sans-serif" paint-order="stroke" stroke="#0f172a" stroke-width="2.2" stroke-opacity="0.4" stroke-linejoin="round">PALI</text><path d="M22,55 L22,120" stroke="#fff" stroke-width="1.6" fill="none"/><text x="30" y="92" font-size="8" fill="#fff" text-anchor="start" font-weight="700" font-family="system-ui,sans-serif" paint-order="stroke" stroke="#0f172a" stroke-width="2.2" stroke-opacity="0.4" stroke-linejoin="round">10/15 m</text><circle cx="210" cy="150" r="8.6" fill="#2563eb" stroke="#fff" stroke-width="1.5"/><text x="210" y="153" font-size="8.6" font-weight="700" fill="#fff" text-anchor="middle" font-family="system-ui,sans-serif">9</text><circle cx="220" cy="140" r="4" fill="#fff" stroke="#0f172a" stroke-width="1.6"/><circle cx="220" cy="140" r="1.3" fill="#0f172a"/><line x1="210" y1="140" x2="210" y2="122" stroke="#16a34a" stroke-width="2.4" marker-end="url(#ap)" stroke-linecap="round"/><circle cx="196" cy="95" r="8.6" fill="#7c3aed" stroke="#fff" stroke-width="1.5"/><text x="196" y="98" font-size="8.6" font-weight="700" fill="#fff" text-anchor="middle" font-family="system-ui,sans-serif">A</text><circle cx="224" cy="95" r="8.6" fill="#7c3aed" stroke="#fff" stroke-width="1.5"/><text x="224" y="98" font-size="8.6" font-weight="700" fill="#fff" text-anchor="middle" font-family="system-ui,sans-serif">A</text><circle cx="202" cy="113" r="8.6" fill="#7c3aed" stroke="#fff" stroke-width="1.5"/><text x="202" y="116" font-size="8.6" font-weight="700" fill="#fff" text-anchor="middle" font-family="system-ui,sans-serif">A</text><circle cx="228" cy="113" r="8.6" fill="#7c3aed" stroke="#fff" stroke-width="1.5"/><text x="228" y="116" font-size="8.6" font-weight="700" fill="#fff" text-anchor="middle" font-family="system-ui,sans-serif">A</text><circle cx="168" cy="108" r="8.6" fill="#7c3aed" stroke="#fff" stroke-width="1.5"/><text x="168" y="111" font-size="8.6" font-weight="700" fill="#fff" text-anchor="middle" font-family="system-ui,sans-serif">A</text><text x="150" y="128" font-size="8.5" fill="#fff" text-anchor="middle" font-weight="700" font-family="system-ui,sans-serif" paint-order="stroke" stroke="#0f172a" stroke-width="2.2" stroke-opacity="0.4" stroke-linejoin="round">PLAY</text><line x1="210" y1="82" x2="210" y2="52" stroke="#e11d48" stroke-width="4" marker-end="url(#ar)" stroke-linecap="round"/><line x1="182" y1="90" x2="172" y2="56" stroke="#e11d48" stroke-width="2.4" marker-end="url(#ar)" stroke-linecap="round"/><line x1="238" y1="90" x2="248" y2="56" stroke="#e11d48" stroke-width="2.4" marker-end="url(#ar)" stroke-linecap="round"/><circle cx="80" cy="152" r="8.6" fill="#2563eb" stroke="#fff" stroke-width="1.5"/><text x="80" y="155" font-size="8.6" font-weight="700" fill="#fff" text-anchor="middle" font-family="system-ui,sans-serif">12</text><circle cx="96" cy="172" r="8.6" fill="#7c3aed" stroke="#fff" stroke-width="1.5"/><text x="96" y="175" font-size="8.6" font-weight="700" fill="#fff" text-anchor="middle" font-family="system-ui,sans-serif">A</text><circle cx="330" cy="150" r="8.6" fill="#7c3aed" stroke="#fff" stroke-width="1.5"/><text x="330" y="153" font-size="8.6" font-weight="700" fill="#fff" text-anchor="middle" font-family="system-ui,sans-serif">A</text><circle cx="356" cy="150" r="8.6" fill="#2563eb" stroke="#fff" stroke-width="1.5"/><text x="356" y="153" font-size="8.6" font-weight="700" fill="#fff" text-anchor="middle" font-family="system-ui,sans-serif">14</text><text x="200" y="200" font-size="8.6" fill="#fff" text-anchor="middle" font-weight="700" font-family="system-ui,sans-serif" paint-order="stroke" stroke="#0f172a" stroke-width="2.2" stroke-opacity="0.4" stroke-linejoin="round">Pizza — punizione veloce vicino alla meta: cariche davanti ai pali</text><rect x="0" y="214" width="400" height="36" fill="#0f172a"/><circle cx="12" cy="229" r="5.5" fill="#2563eb" stroke="#fff" stroke-width="1"/><text x="24" y="233" font-size="9.5" fill="#fff" font-family="system-ui,sans-serif">3/4</text><circle cx="48.2" cy="229" r="5.5" fill="#7c3aed" stroke="#fff" stroke-width="1"/><text x="60.2" y="233" font-size="9.5" fill="#fff" font-family="system-ui,sans-serif">Mischia</text><line x1="101" y1="229" x2="114" y2="229" stroke="#16a34a" stroke-width="2.6" marker-end="url(#aw)"/><text x="120" y="233" font-size="9.5" fill="#fff" font-family="system-ui,sans-serif">Passaggio</text><line x1="171.6" y1="229" x2="184.6" y2="229" stroke="#e11d48" stroke-width="2.6" marker-end="url(#aw)"/><text x="190.6" y="233" font-size="9.5" fill="#fff" font-family="system-ui,sans-serif">Corsa</text><line x1="220.6" y1="229" x2="233.6" y2="229" stroke="#f59e0b" stroke-width="2.6" marker-end="url(#aw)"/><text x="239.6" y="233" font-size="9.5" fill="#fff" font-family="system-ui,sans-serif">Calcio</text><circle cx="280" cy="229" r="5.5" fill="#475569" stroke="#fff" stroke-width="1"/><text x="292" y="233" font-size="9.5" fill="#fff" font-family="system-ui,sans-serif">Difesa</text></svg>