<svg xmlns="http://www.w3.org/2000/svg" viewBox="0 0 400 250" width="400" height="250" role="img"><defs><marker id="ap" markerWidth="9" markerHeight="9" refX="6.5" refY="3" orient="auto" markerUnits="userSpaceOnUse"><path d="M0,0 L7,3 L0,6 Z" fill="#16a34a"/></marker><marker id="ar" markerWidth="9" markerHeight="9" refX="6.5" refY="3" orient="auto" markerUnits="userSpaceOnUse"><path d="M0,0 L7,3 L0,6 Z" fill="#e11d48"/></marker><marker id="ak" markerWidth="9" markerHeight="9" refX="6.5" refY="3" orient="auto" markerUnits="userSpaceOnUse"><path d="M0,0 L7,3 L0,6 Z" fill="#f59e0b"/></marker><marker id="an" markerWidth="9" markerHeight="9" refX="6.5" refY="3" orient="auto" markerUnits="userSpaceOnUse"><path d="M0,0 L7,3 L0,6 Z" fill="#0f172a"/></marker><marker id="aw" markerWidth="9" markerHeight="9" refX="6.5" refY="3" orient="auto" markerUnits="userSpaceOnUse"><path d="M0,0 L7,3 L0,6 Z" fill="#ffffff"/></marker><clipPath id="pc"><rect x="0" y="0" width="400" height="214" rx="14"/></clipPath></defs><g clip-path="url(#pc)"><rect x="0" y="0" width="400" height="214" fill="#1f7a44"/><rect x="0" y="0" width="34" height="214" fill="#249150" opacity="0.55"/><rect x="68" y="0" width="34" height="214" fill="#249150" opacity="0.55"/><rect x="136" y="0" width="34" height="214" fill="#249150" opacity="0.55"/><rect x="204" y="0" width="34" height="214" fill="#249150" opacity="0.55"/><rect x="272" y="0" width="34" height="214" fill="#249150" opacity="0.55"/><rect x="340" y="0" width="34" height="214" fill="#249150" opacity="0.55"/></g><rect x="8" y="8" width="384" height="198" rx="9" fill="none" stroke="#ffffff" stroke-opacity="0.55" stroke-width="2"/><line x1="36" y1="16" x2="36" y2="198" stroke="#ffffff" stroke-width="2.6" stroke-dasharray="7 6" stroke-opacity="0.9"/><text x="38" y="28" font-size="8.5" fill="#fff" text-anchor="start" font-weight="700" font-family="system-ui,sans-serif" paint-order="stroke" stroke="#0f172a" stroke-width="2.2" stroke-opacity="0.4" stroke-linejoin="round">TOUCHE</text><circle cx="58" cy="128" r="8.6" fill="#2563eb" stroke="#fff" stroke-width="1.5"/><text x="58" y="131" font-size="8.6" font-weight="700" fill="#fff" text-anchor="middle" font-family="system-ui,sans-serif">9</text><path d="M68,122 Q122,90 176,102" fill="none" stroke="#16a34a" stroke-width="3" marker-end="url(#ap)" stroke-linecap="round"/><circle cx="116" cy="140" r="8.6" fill="#2563eb" stroke="#fff" stroke-width="1.5"/><text x="116" y="143" font-size="8.6" font-weight="700" fill="#fff" text-anchor="middle" font-family="system-ui,sans-serif">10</text><line x1="126" y1="136" x2="158" y2="128" stroke="#e11d48" stroke-width="2.2" marker-end="url(#ar)" stroke-linecap="round"/><circle cx="174" cy="126" r="8.6" fill="#2563eb" stroke="#fff" stroke-width="1.5"/><text x="174" y="129" font-size="8.6" font-weight="700" fill="#fff" text-anchor="middle" font-family="system-ui,sans-serif">12</text><circle cx="184" cy="116" r="4" fill="#fff" stroke="#0f172a" stroke-width="1.6"/><circle cx="184" cy="116" r="1.3" fill="#0f172a"/><path d="M186,116 Q219,131 252,110" fill="none" stroke="#16a34a" stroke-width="2.6" marker-end="url(#ap)" stroke-linecap="round"/><circle cx="268" cy="112" r="8.6" fill="#2563eb" stroke="#fff" stroke-width="1.5"/><text x="268" y="115" font-size="8.6" font-weight="700" fill="#fff" text-anchor="middle" font-family="system-ui,sans-serif">13</text><line x1="298" y1="168" x2="274" y2="126" stroke="#e11d48" stroke-width="2.4" marker-end="url(#ar)" stroke-linecap="round"/><circle cx="96" cy="188" r="8.6" fill="#2563eb" stroke="#fff" stroke-width="1.5"/><text x="96" y="191" font-size="8.6" font-weight="700" fill="#fff" text-anchor="middle" font-family="system-ui,sans-serif">11</text><line x1="106" y1="186" x2="250" y2="148" stroke="#e11d48" stroke-width="2.4" marker-end="url(#ar)" stroke-linecap="round"/><circle cx="320" cy="158" r="8.6" fill="#2563eb" stroke="#fff" stroke-width="1.5"/><text x="320" y="161" font-size="8.6" font-weight="700" fill="#fff" text-anchor="middle" font-family="system-ui,sans-serif">15</text><circle cx="360" cy="140" r="8.6" fill="#2563eb" stroke="#fff" stroke-width="1.5"/><text x="360" y="143" font-size="8.6" font-weight="700" fill="#fff" text-anchor="middle" font-family="system-ui,sans-serif">14</text><circle cx="126" cy="56" r="8.6" fill="#0f172a" stroke="#fff" stroke-width="1.5"/><text x="126" y="59" font-size="8.6" font-weight="700" fill="#fff" text-anchor="middle" font-family="system-ui,sans-serif">D</text><circle cx="184" cy="56" r="8.6" fill="#0f172a" stroke="#fff" stroke-width="1.5"/><text x="184" y="59" font-size="8.6" font-weight="700" fill="#fff" text-anchor="middle" font-family="system-ui,sans-serif">D</text><circle cx="244" cy="56" r="8.6" fill="#0f172a" stroke="#fff" stroke-width="1.5"/><text x="244" y="59" font-size="8.6" font-weight="700" fill="#fff" text-anchor="middle" font-family="system-ui,sans-serif">D</text><circle cx="312" cy="56" r="8.6" fill="#0f172a" stroke="#fff" stroke-width="1.5"/><text x="312" y="59" font-size="8.6" font-weight="700" fill="#fff" text-anchor="middle" font-family="system-ui,sans-serif">D</text><line x1="126" y1="67" x2="126" y2="86" stroke="#0f172a" stroke-width="2.2" marker-end="url(#an)" stroke-linecap="round"/><line x1="184" y1="67" x2="184" y2="86" stroke="#0f172a" stroke-width="2.2" marker-end="url(#an)" stroke-linecap="round"/><line x1="240" y1="67" x2="228" y2="82" stroke="#0f172a" stroke-width="2" marker-end="url(#an)" stroke-linecap="round"/><line x1="248" y1="67" x2="260" y2="82" stroke="#0f172a" stroke-width="2" marker-end="url(#an)" stroke-linecap="round"/><line x1="312" y1="67" x2="294" y2="82" stroke="#0f172a" stroke-width="2.2" marker-end="url(#an)" stroke-linecap="round"/><text x="204" y="32" font-size="8.8" fill="#fff" text-anchor="middle" font-weight="700" font-family="system-ui,sans-serif" paint-order="stroke" stroke="#0f172a" stroke-width="2.2" stroke-opacity="0.4" stroke-linejoin="round">Tripla — come il Doppio ma con il lancio lungo del 9 sul 12</text><rect x="0" y="214" width="400" height="36" fill="#0f172a"/><circle cx="12" cy="229" r="5.5" fill="#2563eb" stroke="#fff" stroke-width="1"/><text x="24" y="233" font-size="9.5" fill="#fff" font-family="system-ui,sans-serif">3/4</text><circle cx="48.2" cy="229" r="5.5" fill="#7c3aed" stroke="#fff" stroke-width="1"/><text x="60.2" y="233" font-size="9.5" fill="#fff" font-family="system-ui,sans-serif">Mischia</text><line x1="101" y1="229" x2="114" y2="229" stroke="#16a34a" stroke-width="2.6" marker-end="url(#aw)"/><text x="120" y="233" font-size="9.5" fill="#fff" font-family="system-ui,sans-serif">Passaggio</text><line x1="171.6" y1="229" x2="184.6" y2="229" stroke="#e11d48" stroke-width="2.6" marker-end="url(#aw)"/><text x="190.6" y="233" font-size="9.5" fill="#fff" font-family="system-ui,sans-serif">Corsa</text><line x1="220.6" y1="229" x2="233.6" y2="229" stroke="#f59e0b" stroke-width="2.6" marker-end="url(#aw)"/><text x="239.6" y="233" font-size="9.5" fill="#fff" font-family="system-ui,sans-serif">Calcio</text><circle cx="280" cy="229" r="5.5" fill="#475569" stroke="#fff" stroke-width="1"/><text x="292" y="233" font-size="9.5" fill="#fff" font-family="system-ui,sans-serif">Difesa</text></svg>